<svg xmlns="http://www.w3.org/2000/svg" xmlns:xlink="http://www.w3.org/1999/xlink" viewBox="0,0,256,256" width="100px" height="100px" fill-rule="nonzero"><g fill="#ffffff" fill-rule="nonzero" stroke="none" stroke-width="1" stroke-linecap="butt" stroke-linejoin="miter" stroke-miterlimit="10" stroke-dasharray="" stroke-dashoffset="0" font-family="none" font-weight="none" font-size="none" text-anchor="none" style="mix-blend-mode: normal"><g transform="scale(5.12,5.12)"><path d="M11.5,11c-0.128,0 -0.25602,0.04898 -0.35352,0.14648c-0.097,0.098 -0.14648,0.22552 -0.14648,0.35352c0,0.128 0.04848,0.25552 0.14648,0.35352l13.14649,13.14648l-13.14648,13.14648c-0.195,0.195 -0.195,0.51203 0,0.70703c0.098,0.097 0.22552,0.14648 0.35352,0.14648c0.128,0 0.25552,-0.04848 0.35352,-0.14648l13.14648,-13.14648l13.14648,13.14648c0.195,0.195 0.51203,0.195 0.70703,0c0.195,-0.196 0.196,-0.51103 0,-0.70703l-13.14648,-13.14648l13.14648,-13.14648c0.195,-0.195 0.195,-0.51203 0,-0.70703c-0.196,-0.195 -0.51103,-0.196 -0.70703,0l-13.14648,13.14649l-13.14648,-13.14648c-0.0975,-0.0975 -0.22552,-0.14648 -0.35352,-0.14648z"></path></g></g></svg>